<?xml version="1.0" encoding="utf-8"?>
<!-- Generator: Adobe Illustrator 26.0.2, SVG Export Plug-In . SVG Version: 6.00 Build 0)  -->
<svg version="1.1" id="Layer_1" xmlns="http://www.w3.org/2000/svg" xmlns:xlink="http://www.w3.org/1999/xlink" x="0px" y="0px"
	 viewBox="0 0 512 125.4" style="enable-background:new 0 0 512 125.4;" xml:space="preserve">
<style type="text/css">
	.st0{fill:#1B1F24;}
</style>
<g>
	<path class="st0" d="M64.2,0C28.7,0,0,28.7,0,64.2c0,28.4,18.4,52.5,43.9,61c3.2,0.6,4.5-1.4,4.5-3.1c0-1.5-0.1-6.5-0.1-12
		c-16.2,2.9-20.3-3.9-21.6-7.5c-0.7-1.8-3.9-7.5-6.5-9.1c-2.2-1.3-5.4-4.2-0.1-4.3c5-0.1,8.6,4.6,9.9,6.5c5.9,9.8,15.1,7,18.7,5.3
		c0.6-4.2,2.2-7,4-8.6c-14.4-1.7-29.3-7.1-29.3-31.8c0-7,2.5-12.8,6.5-17.3c-0.7-1.7-2.9-8.2,0.7-17c0,0,5.4-1.7,17.7,6.5
		c5.2-1.4,10.6-2.2,16-2.2s10.9,0.7,16,2.2C92.5,24.7,98,26.5,98,26.5c3.5,8.8,1.3,15.5,0.7,17c4,4.5,6.5,10.2,6.5,17.3
		c0,24.7-15.1,30.1-29.4,31.8c2.4,2,4.3,5.9,4.3,11.8c0,8.6-0.1,15.5-0.1,17.7c0,1.7,1.3,3.8,4.5,3.1c25.4-8.5,43.8-32.6,43.8-61
		C128.6,28.7,99.8,0,64.2,0z"/>
	<path class="st0" d="M308.8,93.5h-0.1C308.8,93.5,308.8,93.5,308.8,93.5L308.8,93.5L308.8,93.5z M308.8,93.5
		c-0.7,0-2.5,0.4-4.5,0.4c-6.1,0-8.2-2.8-8.2-6.4V63.1h12.4c0.7,0,1.3-0.6,1.3-1.5V48.4c0-0.7-0.6-1.3-1.3-1.3h-12.4V30.8
		c0-0.6-0.4-1-1.1-1h-16.7c-0.7,0-1.1,0.4-1.1,1v16.9c0,0-8.5,2.1-9.1,2.2c-0.6,0.1-1,0.7-1,1.3v10.6c0,0.8,0.6,1.5,1.3,1.5h8.6
		v25.5c0,19,13.2,20.9,22.3,20.9c4.2,0,9.1-1.3,9.9-1.7c0.4-0.1,0.7-0.7,0.7-1.3V95C310.1,94.2,309.5,93.6,308.8,93.5z M493,76.5
		c0-14.1-5.7-15.9-11.7-15.3c-4.6,0.3-8.4,2.6-8.4,2.6v27.3c0,0,3.8,2.6,9.5,2.8C490.5,94.2,493,91.3,493,76.5z M512,75.3
		c0,26.6-8.6,34.3-23.7,34.3c-12.7,0-19.6-6.4-19.6-6.4s-0.3,3.6-0.7,4c-0.3,0.4-0.6,0.6-1.1,0.6h-11.6c-0.8,0-1.5-0.6-1.5-1.3
		l0.1-86.4c0-0.7,0.6-1.3,1.3-1.3h16.6c0.7,0,1.3,0.6,1.3,1.3l-0.1,29.1c0,0,6.4-4.2,15.7-4.2h0.1C498.2,45,512,48.5,512,75.3z
		 M444.1,47.1h-16.3c-0.8,0-1.3,0.6-1.3,1.5v42.2c0,0-4.3,3.1-10.2,3.1c-5.9,0-7.5-2.6-7.5-8.5V48.5c0-0.7-0.6-1.3-1.3-1.3H391
		c-0.7,0-1.3,0.6-1.3,1.3v39.7c0,17.1,9.6,21.3,22.7,21.3c10.9,0,19.6-6,19.6-6s0.4,3.1,0.6,3.5c0.1,0.4,0.7,0.7,1.3,0.7h10.5
		c0.8,0,1.3-0.6,1.3-1.3l0.1-58.1C445.7,47.8,445,47.1,444.1,47.1z M259.9,47.1h-16.6c-0.7,0-1.3,0.7-1.3,1.5v57
		c0,1.5,1,2.1,2.4,2.1h14.9c1.5,0,2-0.7,2-2.1V48.4C261.3,47.7,260.6,47.1,259.9,47.1z M251.8,20.8c-6,0-10.7,4.7-10.7,10.7
		s4.7,10.7,10.7,10.7c5.9,0,10.6-4.7,10.6-10.7S257.7,20.8,251.8,20.8z M380,18.8h-16.4c-0.7,0-1.3,0.6-1.3,1.3v31.8h-25.8V20.2
		c0-0.7-0.6-1.3-1.3-1.3h-16.6c-0.7,0-1.3,0.6-1.3,1.3v86.4c0,0.7,0.7,1.3,1.3,1.3h16.6c0.7,0,1.3-0.6,1.3-1.3V69.5h25.8l-0.1,36.9
		c0,0.7,0.6,1.3,1.3,1.3H380c0.7,0,1.3-0.6,1.3-1.3V20.1C381.3,19.5,380.7,18.8,380,18.8z M233.3,57.1v44.6c0,0.3-0.1,0.8-0.4,1
		c0,0-9.8,7-25.8,7c-19.4,0-42.2-6.1-42.2-46c0-40,20.1-48.2,39.6-48.1c17,0,23.8,3.8,24.8,4.5c0.3,0.4,0.4,0.7,0.4,1.1L226.5,35
		c0,0.7-0.7,1.5-1.5,1.3c-2.8-0.8-7-2.5-16.9-2.5c-11.4,0-23.7,3.2-23.7,29s11.7,28.7,20.1,28.7c7.1,0,9.8-0.8,9.8-0.8V72.7h-11.4
		c-0.8,0-1.5-0.6-1.5-1.3V57.1c0-0.7,0.6-1.3,1.5-1.3h29.1C232.7,55.7,233.3,56.4,233.3,57.1z"/>
</g>
</svg>
