<svg xmlns="http://www.w3.org/2000/svg" fill="#000000" width="800px" height="800px" viewBox="0 0 24 24">
  <path d="M4.5,16 C4.776,16 5,16.224 5,16.5 V19.5 C5,20.329 5.672,21 6.5,21 H17.5 C18.328,21 19,20.329 19,19.5 V7 H15.5 C15.224,7 15,6.776 15,6.5 V3 H6.5 C5.672,3 5,3.672 5,4.5 V6.5 C5,6.776 4.776,7 4.5,7 C4.224,7 4,6.776 4,6.5 V4.5 C4,3.119 5.119,2 6.5,2 H15.47 C15.605,1.993 15.743,2.037 15.854,2.147 L19.854,6.147 C19.964,6.258 20.008,6.396 20,6.529 V19.5 C20,20.881 18.881,22 17.5,22 H6.5 C5.119,22 4,20.881 4,19.5 V16.5 C4,16.224 4.224,16 4.5,16 Z M16,3.708 V6 H18.293 L16,3.708 Z M17.5,11 H10.707 L12.854,8.854 C13.049,8.659 13.049,8.341 12.854,8.146 C12.659,7.951 12.341,7.951 12.146,8.146 L9.146,11.146 C8.951,11.341 8.951,11.659 9.146,11.854 L12.146,14.854 C12.341,15.049 12.659,15.049 12.854,14.854 C13.049,14.659 13.049,14.341 12.854,14.146 L10.707,12 H17.5 C17.776,12 18,11.776 18,11.5 C18,11.224 17.776,11 17.5,11 Z"/>
</svg>
